<svg width="17" height="16" viewBox="0 0 17 16" fill="none" xmlns="http://www.w3.org/2000/svg">
<path d="M3.07602 10.97C2.50402 8.682 2.21802 7.53867 2.81869 6.76933C3.41869 6 4.59869 6 6.95669 6H10.0434C12.402 6 13.5807 6 14.1814 6.76933C14.782 7.538 14.496 8.68267 13.924 10.97C13.56 12.4253 13.3787 13.1527 12.836 13.5767C12.2934 14 11.5434 14 10.0434 14H6.95669C5.45669 14 4.70669 14 4.16402 13.5767C3.62135 13.1527 3.43936 12.4253 3.07602 10.97Z" stroke="white"/>
<path d="M13.5 6.33317L13.0267 4.5965C12.844 3.9265 12.7527 3.59184 12.5653 3.33917C12.3785 3.08815 12.1249 2.89477 11.8333 2.78117C11.54 2.6665 11.1933 2.6665 10.5 2.6665M3.5 6.33317L3.97333 4.5965C4.156 3.9265 4.24733 3.59184 4.43467 3.33917C4.62145 3.08815 4.87513 2.89477 5.16667 2.78117C5.46 2.6665 5.80667 2.6665 6.5 2.6665" stroke="white"/>
<path d="M6.5 2.66667C6.5 2.48986 6.57024 2.32029 6.69526 2.19526C6.82029 2.07024 6.98986 2 7.16667 2H9.83333C10.0101 2 10.1797 2.07024 10.3047 2.19526C10.4298 2.32029 10.5 2.48986 10.5 2.66667C10.5 2.84348 10.4298 3.01305 10.3047 3.13807C10.1797 3.2631 10.0101 3.33333 9.83333 3.33333H7.16667C6.98986 3.33333 6.82029 3.2631 6.69526 3.13807C6.57024 3.01305 6.5 2.84348 6.5 2.66667Z" stroke="white"/>
</svg>
