<svg width="16" height="16" viewBox="0 0 16 16" fill="none" xmlns="http://www.w3.org/2000/svg">
<path d="M2.57602 10.97C2.00402 8.682 1.71802 7.53867 2.31869 6.76933C2.91869 6 4.09869 6 6.45669 6H9.54335C11.902 6 13.0807 6 13.6814 6.76933C14.282 7.538 13.996 8.68267 13.424 10.97C13.06 12.4253 12.8787 13.1527 12.336 13.5767C11.7934 14 11.0434 14 9.54335 14H6.45669C4.95669 14 4.20669 14 3.66402 13.5767C3.12135 13.1527 2.93936 12.4253 2.57602 10.97Z" stroke="#303030"/>
<path d="M13 6.33332L12.5267 4.59666C12.344 3.92666 12.2527 3.59199 12.0653 3.33932C11.8785 3.0883 11.6249 2.89492 11.3333 2.78132C11.04 2.66666 10.6933 2.66666 10 2.66666M3 6.33332L3.47333 4.59666C3.656 3.92666 3.74733 3.59199 3.93467 3.33932C4.12145 3.0883 4.37513 2.89492 4.66667 2.78132C4.96 2.66666 5.30667 2.66666 6 2.66666" stroke="#303030"/>
<path d="M6 2.66667C6 2.48986 6.07024 2.32029 6.19526 2.19526C6.32029 2.07024 6.48986 2 6.66667 2H9.33333C9.51014 2 9.67971 2.07024 9.80474 2.19526C9.92976 2.32029 10 2.48986 10 2.66667C10 2.84348 9.92976 3.01305 9.80474 3.13807C9.67971 3.2631 9.51014 3.33333 9.33333 3.33333H6.66667C6.48986 3.33333 6.32029 3.2631 6.19526 3.13807C6.07024 3.01305 6 2.84348 6 2.66667Z" stroke="#303030"/>
</svg>
